<svg xmlns="http://www.w3.org/2000/svg" width="160" height="43.636" viewBox="0 0 160 43.636">
  <g id="logo" style="mix-blend-mode: difference;isolation: isolate">
    <path id="Path_1" data-name="Path 1" d="M21.952.508a4.008,4.008,0,0,0-3.907,0L17.291.93,1.954,9.52A3.774,3.774,0,0,0,0,12.8V30.832a3.769,3.769,0,0,0,1.955,3.283l.716.4,15.375,8.611a4.008,4.008,0,0,0,3.907,0l15.4-8.625h0l.688-.385A3.772,3.772,0,0,0,40,30.834V12.8A3.772,3.772,0,0,0,38.046,9.52L22.706.93ZM34.71,31.42l-13.5,7.56a2.491,2.491,0,0,1-2.426,0l-13.5-7.56a2.343,2.343,0,0,1-1.213-2.039V14.256a2.343,2.343,0,0,1,1.213-2.039l13.5-7.56a2.491,2.491,0,0,1,2.426,0l13.5,7.56a2.342,2.342,0,0,1,1.213,2.039V29.383A2.335,2.335,0,0,1,34.71,31.42Z" fill="#707070"/>
    <path id="Path_2" data-name="Path 2" d="M7.219,17.219V27.891a3.772,3.772,0,0,0,1.954,3.283l2.12,1.187V27.767a2.306,2.306,0,0,1,1.2-2.008l6.973-3.905a2.307,2.307,0,0,0,1.2-2.008V16.621l-9.362,5.242V18.67a2.342,2.342,0,0,1,1.213-2.039l6.936-3.887a2.491,2.491,0,0,1,2.426,0l8.149,4.566V14.086a2.308,2.308,0,0,0-1.194-2.008L22.61,8.6a4.011,4.011,0,0,0-3.909,0L9.172,13.936A3.77,3.77,0,0,0,7.219,17.219Z" transform="translate(-0.656 -0.735)" fill="#707070"/>
    <path id="Path_3" data-name="Path 3" d="M21.99,36.373v1.441a1.062,1.062,0,0,0,1.593.892l10.252-5.744a1.014,1.014,0,0,0,0-1.783l-1.287-.721a2.454,2.454,0,0,0-2.39,0l-6.974,3.908A2.308,2.308,0,0,0,21.99,36.373Z" transform="translate(-1.999 -2.741)" fill="#707070"/>
    <path id="Path_4" data-name="Path 4" d="M33.485,27.489l1.287.721a1.061,1.061,0,0,0,1.591-.892V25.465a2.308,2.308,0,0,0-1.194-2.008l-1.287-.721a1.061,1.061,0,0,0-1.591.892v1.853A2.3,2.3,0,0,0,33.485,27.489Z" transform="translate(-2.936 -2.054)" fill="#707070"/>
    <path id="Path_5" data-name="Path 5" d="M56,4.37H67.212V6.608H58.687v6.867h7.877v2.207H58.687v9.35H56Z" transform="translate(-5.091 -0.397)" fill="#707070"/>
    <path id="Path_6" data-name="Path 6" d="M72.545,4.37h2.687V22.791h8.9v2.238H72.545Z" transform="translate(-6.595 -0.397)" fill="#707070"/>
    <path id="Path_7" data-name="Path 7" d="M99.361,15.344H91.269v7.447h9.019v2.238H88.583V4.37H99.826V6.608H91.269v6.529h8.092Z" transform="translate(-8.053 -0.397)" fill="#707070"/>
    <path id="Path_8" data-name="Path 8" d="M116.538,25.029l-2.657-4.566c-1.081-1.748-1.761-2.881-2.409-4.078h-.061c-.586,1.2-1.174,2.3-2.255,4.107l-2.5,4.537h-3.089l6.363-10.452L103.811,4.37h3.12l2.75,4.844c.772,1.349,1.359,2.391,1.915,3.5h.093c.586-1.226,1.111-2.176,1.885-3.5l2.841-4.844H119.5L113.17,14.423l6.486,10.607Z" transform="translate(-9.415 -0.397)" fill="#707070"/>
    <path id="Path_9" data-name="Path 9" d="M135.477,15.344h-8.091v7.447h9.019v2.238H124.7V4.37h11.243V6.608h-8.556v6.529h8.091Z" transform="translate(-11.336 -0.397)" fill="#707070"/>
    <path id="Path_10" data-name="Path 10" d="M140.462,25.15a1.819,1.819,0,0,1,1.854-1.931,1.8,1.8,0,0,1,1.822,1.931,1.84,1.84,0,1,1-3.675,0Z" transform="translate(-12.769 -2.111)" fill="#707070"/>
    <path id="Path_11" data-name="Path 11" d="M151,4.37v20.66H148.31V4.37Z" transform="translate(-13.483 -0.397)" fill="#707070"/>
    <path id="Path_12" data-name="Path 12" d="M174.1,14.452c0,7.111-4.355,10.882-9.667,10.882-5.5,0-9.36-4.23-9.36-10.483C155.07,8.291,159.179,4,164.737,4,170.422,4,174.1,8.322,174.1,14.452Zm-16.154.338c0,4.414,2.409,8.368,6.64,8.368,4.263,0,6.671-3.892,6.671-8.583,0-4.107-2.163-8.4-6.639-8.4C160.167,6.176,157.944,10.253,157.944,14.79Z" transform="translate(-14.097 -0.364)" fill="#707070"/>
    <path id="Path_13" data-name="Path 13" d="M61.6,40.368a4.754,4.754,0,0,1-1.953.347A3.439,3.439,0,0,1,56,37a3.664,3.664,0,0,1,3.861-3.851,3.962,3.962,0,0,1,1.754.327l-.23.773a3.49,3.49,0,0,0-1.492-.3,2.737,2.737,0,0,0-2.883,3.025,2.675,2.675,0,0,0,2.84,2.949,3.833,3.833,0,0,0,1.558-.3Z" transform="translate(-5.091 -3.014)" fill="#707070"/>
    <path id="Path_14" data-name="Path 14" d="M63.4,37.191c0-.621-.011-1.154-.043-1.642H64.2l.034,1.033h.043a1.59,1.59,0,0,1,1.47-1.154,1,1,0,0,1,.273.034v.9a1.423,1.423,0,0,0-.33-.034,1.348,1.348,0,0,0-1.294,1.23,2.594,2.594,0,0,0-.043.446v2.807H63.4Z" transform="translate(-5.76 -3.221)" fill="#707070"/>
    <path id="Path_15" data-name="Path 15" d="M67.932,35.559l1.163,3.112c.12.347.253.762.341,1.078h.023c.1-.316.208-.719.341-1.1l1.052-3.09h1.02l-1.447,3.755a8.031,8.031,0,0,1-1.82,3.3,2.629,2.629,0,0,1-1.185.621l-.242-.8a2.545,2.545,0,0,0,.844-.468,2.878,2.878,0,0,0,.811-1.066.717.717,0,0,0,.077-.229.873.873,0,0,0-.065-.251l-1.962-4.853h1.05Z" transform="translate(-6.08 -3.233)" fill="#707070"/>
    <path id="Path_16" data-name="Path 16" d="M73.328,37.268c0-.674-.023-1.219-.043-1.718h.867l.043.9h.023A2.09,2.09,0,0,1,76.1,35.428a2.393,2.393,0,0,1,2.249,2.677c0,1.893-1.163,2.83-2.413,2.83a1.867,1.867,0,0,1-1.635-.827h-.023V42.97h-.955v-5.7Zm.953,1.4a2.324,2.324,0,0,0,.043.392,1.487,1.487,0,0,0,1.447,1.12c1.02,0,1.612-.827,1.612-2.034,0-1.055-.56-1.958-1.578-1.958a1.539,1.539,0,0,0-1.458,1.185,1.5,1.5,0,0,0-.065.392Z" transform="translate(-6.662 -3.221)" fill="#707070"/>
    <path id="Path_17" data-name="Path 17" d="M81.294,33.9v1.512h1.382v.728H81.294v2.841c0,.652.187,1.024.725,1.024a2.234,2.234,0,0,0,.56-.065l.043.719a2.38,2.38,0,0,1-.856.13,1.346,1.346,0,0,1-1.043-.4,1.944,1.944,0,0,1-.373-1.371V36.138h-.822V35.41h.822V34.148Z" transform="translate(-7.23 -3.081)" fill="#707070"/>
    <path id="Path_18" data-name="Path 18" d="M88.876,38.137a2.584,2.584,0,0,1-2.644,2.8,2.513,2.513,0,0,1-2.544-2.709,2.58,2.58,0,0,1,2.632-2.8A2.5,2.5,0,0,1,88.876,38.137Zm-4.211.056c0,1.154.668,2.023,1.612,2.023.921,0,1.612-.86,1.612-2.046,0-.892-.449-2.023-1.589-2.023S84.666,37.191,84.666,38.193Z" transform="translate(-7.608 -3.221)" fill="#707070"/>
    <path id="Path_19" data-name="Path 19" d="M99.535,37.4c-.055-1.024-.12-2.252-.108-3.166h-.034c-.253.86-.56,1.775-.933,2.785l-1.3,3.558h-.725l-1.194-3.493c-.35-1.033-.648-1.981-.856-2.85h-.023c-.023.914-.077,2.144-.142,3.242l-.2,3.146h-.91l.515-7.335h1.217L96.1,36.831c.307.9.56,1.71.745,2.471h.032c.187-.739.449-1.546.779-2.471l1.316-3.547h1.217l.461,7.335h-.933Z" transform="translate(-8.464 -3.026)" fill="#707070"/>
    <path id="Path_20" data-name="Path 20" d="M105.957,40.814l-.076-.663h-.032a1.98,1.98,0,0,1-1.624.784,1.506,1.506,0,0,1-1.623-1.512c0-1.273,1.14-1.969,3.19-1.958v-.11a1.089,1.089,0,0,0-1.205-1.219,2.654,2.654,0,0,0-1.382.392l-.219-.632a3.317,3.317,0,0,1,1.743-.468c1.624,0,2.018,1.1,2.018,2.155v1.969a7.376,7.376,0,0,0,.088,1.261Zm-.142-2.689c-1.052-.022-2.249.164-2.249,1.185a.851.851,0,0,0,.91.914,1.319,1.319,0,0,0,1.283-.881,1.053,1.053,0,0,0,.054-.3v-.914Z" transform="translate(-9.327 -3.221)" fill="#707070"/>
    <path id="Path_21" data-name="Path 21" d="M108.868,37.191c0-.621-.011-1.154-.045-1.642h.845l.031,1.033h.045a1.59,1.59,0,0,1,1.47-1.154,1,1,0,0,1,.273.034v.9a1.43,1.43,0,0,0-.329-.034,1.348,1.348,0,0,0-1.294,1.23,2.581,2.581,0,0,0-.044.446v2.807h-.953Z" transform="translate(-9.893 -3.221)" fill="#707070"/>
    <path id="Path_22" data-name="Path 22" d="M113.819,37.728h.023c.131-.186.318-.415.472-.6l1.557-1.817h1.163l-2.05,2.167,2.337,3.1h-1.175l-1.831-2.525-.495.544v1.981h-.955V32.855h.955v4.873Z" transform="translate(-10.261 -2.987)" fill="#707070"/>
    <path id="Path_23" data-name="Path 23" d="M119.02,38.354a1.694,1.694,0,0,0,1.819,1.828,3.514,3.514,0,0,0,1.47-.271l.165.686a4.328,4.328,0,0,1-1.765.327,2.454,2.454,0,0,1-2.61-2.655,2.566,2.566,0,0,1,2.491-2.841,2.236,2.236,0,0,1,2.192,2.48,4.079,4.079,0,0,1-.032.446Zm2.828-.686a1.367,1.367,0,0,0-1.338-1.557,1.592,1.592,0,0,0-1.481,1.557Z" transform="translate(-10.736 -3.221)" fill="#707070"/>
    <path id="Path_24" data-name="Path 24" d="M125.665,33.9v1.512h1.382v.728h-1.382v2.841c0,.652.187,1.024.725,1.024a2.235,2.235,0,0,0,.56-.065l.043.719a2.378,2.378,0,0,1-.855.13,1.345,1.345,0,0,1-1.043-.4,1.942,1.942,0,0,1-.373-1.371V36.138H123.9V35.41h.822V34.148Z" transform="translate(-11.264 -3.081)" fill="#707070"/>
    <path id="Path_25" data-name="Path 25" d="M129.617,33.872a.6.6,0,0,1-1.195,0,.586.586,0,0,1,.6-.6A.57.57,0,0,1,129.617,33.872Zm-1.075,6.746V35.351h.964v5.267Z" transform="translate(-11.675 -3.025)" fill="#707070"/>
    <path id="Path_26" data-name="Path 26" d="M131.373,36.974c0-.544-.012-.99-.045-1.425h.855l.055.872h.023a1.954,1.954,0,0,1,1.754-.99c.734,0,1.874.435,1.874,2.243v3.146h-.964V37.783c0-.849-.318-1.557-1.228-1.557a1.368,1.368,0,0,0-1.294.979,1.391,1.391,0,0,0-.065.446v3.166h-.964Z" transform="translate(-11.939 -3.221)" fill="#707070"/>
    <path id="Path_27" data-name="Path 27" d="M142.6,35.547c-.023.381-.045.8-.045,1.447v3.058a3.016,3.016,0,0,1-.756,2.4,2.824,2.824,0,0,1-1.931.632,3.45,3.45,0,0,1-1.765-.435l.242-.728a3.009,3.009,0,0,0,1.558.414c.986,0,1.711-.511,1.711-1.839v-.587h-.023a1.9,1.9,0,0,1-1.688.88,2.359,2.359,0,0,1-2.258-2.568,2.536,2.536,0,0,1,2.391-2.8,1.766,1.766,0,0,1,1.655.914h.023l.045-.8h.842Zm-1,2.079a1.4,1.4,0,0,0-1.4-1.447c-.921,0-1.578.773-1.578,1.992,0,1.033.526,1.893,1.569,1.893a1.413,1.413,0,0,0,1.339-.979,1.66,1.66,0,0,0,.077-.511v-.948Z" transform="translate(-12.513 -3.221)" fill="#707070"/>
    <path id="Path_28" data-name="Path 28" d="M151.982,40.607c-.207-.206-.406-.415-.691-.719a3.044,3.044,0,0,1-2.161.838,2.083,2.083,0,0,1-2.268-2.057,2.41,2.41,0,0,1,1.446-2.144v-.034a2.513,2.513,0,0,1-.614-1.535,1.786,1.786,0,0,1,1.874-1.806,1.533,1.533,0,0,1,1.635,1.557c0,.773-.449,1.382-1.623,1.958V36.7c.625.719,1.327,1.524,1.8,2.046a5.32,5.32,0,0,0,.714-2.144h.878a5.553,5.553,0,0,1-1.063,2.709c.395.414.778.827,1.216,1.295h-1.14Zm-1.163-1.261c-.438-.479-1.262-1.371-2.084-2.308a1.8,1.8,0,0,0-.955,1.49,1.453,1.453,0,0,0,1.513,1.481A2.07,2.07,0,0,0,150.819,39.346Zm-2.246-4.474a2.052,2.052,0,0,0,.56,1.317c.745-.423,1.228-.816,1.228-1.436a.867.867,0,0,0-.855-.948A.959.959,0,0,0,148.573,34.872Z" transform="translate(-13.351 -3.014)" fill="#707070"/>
    <path id="Path_29" data-name="Path 29" d="M157.258,33.366a11.13,11.13,0,0,1,1.831-.141,3.045,3.045,0,0,1,2.072.609,1.961,1.961,0,0,1,.648,1.535,2.149,2.149,0,0,1-.571,1.566,3.074,3.074,0,0,1-2.258.8,3.346,3.346,0,0,1-.767-.065v2.937h-.953V33.366Zm.955,3.538a3.254,3.254,0,0,0,.79.076c1.152,0,1.854-.556,1.854-1.566,0-.968-.691-1.436-1.743-1.436a4.09,4.09,0,0,0-.9.076V36.9Z" transform="translate(-14.296 -3.02)" fill="#707070"/>
    <path id="Path_30" data-name="Path 30" d="M163.675,33.377a9.962,9.962,0,0,1,1.831-.152,3.041,3.041,0,0,1,2.137.6,1.821,1.821,0,0,1,.581,1.394,1.926,1.926,0,0,1-1.394,1.871v.034a1.83,1.83,0,0,1,1.086,1.481,11.668,11.668,0,0,0,.571,2.014H167.5a9.593,9.593,0,0,1-.495-1.752c-.219-1.013-.614-1.394-1.481-1.425h-.9v3.177h-.953Zm.953,3.341h.975c1.021,0,1.666-.556,1.666-1.394,0-.948-.691-1.36-1.7-1.371a3.889,3.889,0,0,0-.944.087v2.677Z" transform="translate(-14.88 -3.02)" fill="#707070"/>
  </g>
</svg>
